<svg id="Capa_1" enable-background="new 0 0 512 512" height="512" viewBox="0 0 512 512" width="512" xmlns="http://www.w3.org/2000/svg"><g><path d="m441.5 496.5v-2.5c0-15.164-12.336-27.5-27.5-27.5h-7.739l-43.223-72.507c12.615-8.151 24.328-17.757 34.894-28.679 1.342.115 2.697.186 4.068.186h20c26.191 0 47.5-21.309 47.5-47.5 0-16.954-8.935-31.853-22.338-40.26 3.267-12.591 5.294-25.53 6.025-38.551l-14.977-.84c-.634 11.3-2.338 22.529-5.041 33.49-3.585-.867-7.322-1.339-11.17-1.339h-3.975c3.635-13.834 5.475-28.086 5.475-42.5s-1.84-28.666-5.475-42.5h3.976c3.847 0 7.584-.471 11.168-1.339 3.204 12.99 4.993 26.332 5.288 39.777l14.996-.329c-.336-15.343-2.454-30.568-6.29-45.349 13.402-8.407 22.338-23.306 22.338-40.26 0-26.191-21.309-47.5-47.5-47.5h-20c-1.381 0-2.746.072-4.097.188-11.161-11.532-23.663-21.69-37.248-30.195l-7.96 12.714c10.218 6.397 19.783 13.797 28.552 22.075-4.67 2.278-8.911 5.301-12.573 8.912-17.388-15.833-37.878-27.847-60.074-35.211 2.199-4.447 3.719-9.284 4.431-14.378 9.339 3.072 18.444 6.905 27.165 11.449l6.931-13.303c-11.032-5.747-22.629-10.445-34.538-14.003-4.318-21.777-23.563-38.248-46.589-38.248h-20c-23.026 0-42.271 16.471-46.589 38.248-11.909 3.558-23.506 8.256-34.538 14.003l6.931 13.303c8.722-4.544 17.826-8.377 27.165-11.449.712 5.094 2.232 9.932 4.431 14.378-22.196 7.364-42.686 19.377-60.074 35.211-3.662-3.611-7.903-6.633-12.573-8.912 8.769-8.278 18.334-15.678 28.552-22.075l-7.96-12.714c-13.584 8.505-26.087 18.663-37.248 30.195-1.352-.116-2.716-.188-4.097-.188h-20c-26.191 0-47.5 21.309-47.5 47.5 0 16.954 8.935 31.854 22.338 40.26-3.836 14.781-5.954 30.007-6.29 45.349l14.996.329c.295-13.445 2.085-26.788 5.288-39.777 3.584.867 7.321 1.339 11.168 1.339h3.975c-3.635 13.834-5.475 28.086-5.475 42.5s1.84 28.666 5.475 42.5h-3.975c-3.847 0-7.585.471-11.17 1.339-2.703-10.961-4.407-22.189-5.041-33.49l-14.977.84c.73 13.021 2.758 25.96 6.025 38.551-13.402 8.407-22.337 23.306-22.337 40.26 0 26.191 21.309 47.5 47.5 47.5h20c1.371 0 2.726-.072 4.068-.186 10.566 10.922 22.279 20.528 34.894 28.679l-43.223 72.507h-7.739c-15.164 0-27.5 12.336-27.5 27.5v2.5h-70.5v15h512v-15zm-128.473-95.129c-.714-5.086-2.232-9.915-4.428-14.354 22.196-7.364 42.686-19.377 60.074-35.211 3.66 3.608 7.898 6.629 12.565 8.907-19.53 18.445-42.794 32.306-68.211 40.658zm-160.688-104.862 62.443-36.051c2.533 3.209 5.429 6.115 8.63 8.658l-51.346 86.128c-6.995-4.628-13.624-9.838-19.81-15.589 3.344-6.499 5.245-13.856 5.245-21.654-.001-7.734-1.87-15.033-5.162-21.492zm207.406 43.145c-6.185 5.75-12.814 10.961-19.81 15.589l-51.346-86.128c3.201-2.542 6.097-5.448 8.63-8.658l62.443 36.051c-3.292 6.459-5.161 13.759-5.161 21.491-.001 7.799 1.9 15.157 5.244 21.655zm-103.745-74.154c-20.678 0-37.5-16.822-37.5-37.5s16.822-37.5 37.5-37.5 37.5 16.822 37.5 37.5-16.822 37.5-37.5 37.5zm-19.634 11.177c3.842 1.555 7.906 2.671 12.134 3.279v80.544h-2.5c-12.982 0-24.76 5.24-33.342 13.709-9.594-2.851-18.869-6.648-27.693-11.313zm12.134 98.823v25h-34.117c3.396-14.315 16.278-25 31.617-25zm49.117 40c-3.396 14.315-16.278 25-31.617 25h-20c-15.339 0-28.221-10.685-31.617-25zm-34.117-15v-25h2.5c15.339 0 28.221 10.685 31.617 25zm2.5-40h-2.5v-80.544c4.228-.608 8.292-1.724 12.134-3.279l51.401 86.22c-8.824 4.665-18.098 8.462-27.693 11.313-8.582-8.47-20.36-13.71-33.342-13.71zm153.5-75h2.5c15.339 0 28.221 10.685 31.617 25h-34.117zm34.117 40c-3.396 14.315-16.278 25-31.617 25h-20c-15.339 0-28.221-10.685-31.617-25zm-83.234-15c3.396-14.315 16.278-25 31.617-25h2.5v25zm49.117-205h2.5c15.339 0 28.221 10.685 31.617 25h-34.117zm-17.5 0h2.5v25h-34.117c3.396-14.315 16.278-25 31.617-25zm51.617 40c-3.396 14.315-16.278 25-31.617 25h-20c-15.339 0-28.221-10.685-31.617-25zm-51.617 40h.46c4.007 13.777 6.04 28.047 6.04 42.5s-2.033 28.723-6.04 42.5h-.46c-13.038 0-24.864 5.283-33.455 13.817l-63.807-36.839c2.418-6.028 3.762-12.597 3.762-19.479s-1.344-13.451-3.762-19.479l63.807-36.839c8.591 8.536 20.417 13.819 33.455 13.819zm-102.657-103.71c22.449 6.67 43.152 18.518 60.402 34.555-3.344 6.499-5.245 13.856-5.245 21.654 0 7.733 1.869 15.032 5.161 21.491l-62.443 36.051c-8.155-10.334-20.096-17.541-33.718-19.498v-80.543h2.5c12.982 0 24.76-5.24 33.343-13.71zm-35.843-66.29h2.5c15.339 0 28.221 10.685 31.617 25h-34.117zm-17.5 0h2.5v25h-34.117c3.396-14.315 16.278-25 31.617-25zm51.617 40c-3.396 14.315-16.278 25-31.617 25h-20c-15.339 0-28.221-10.685-31.617-25zm-84.96 26.29c8.583 8.47 20.361 13.71 33.343 13.71h2.5v80.544c-13.622 1.958-25.564 9.165-33.718 19.498l-62.443-36.051c3.292-6.459 5.161-13.759 5.161-21.491 0-7.798-1.901-15.156-5.245-21.654 17.25-16.037 37.953-27.885 60.402-34.556zm-69.202 89.893 63.807 36.839c-2.418 6.028-3.762 12.597-3.762 19.479s1.344 13.451 3.762 19.479l-63.807 36.839c-8.591-8.536-20.417-13.819-33.455-13.819h-.46c-4.007-13.777-6.04-28.047-6.04-42.5s2.033-28.723 6.04-42.5h.46c13.038 0 24.864-5.283 33.455-13.817zm-1.838 138.817h-34.117v-25h2.5c15.339 0 28.221 10.685 31.617 25zm-34.117-205h2.5c15.339 0 28.221 10.685 31.617 25h-34.117zm-17.5 0h2.5v25h-34.117c3.396-14.315 16.278-25 31.617-25zm0 65c-15.339 0-28.221-10.685-31.617-25h83.234c-3.396 14.315-16.278 25-31.617 25zm0 115h2.5v25h-34.117c3.396-14.315 16.278-25 31.617-25zm20 65h-20c-15.339 0-28.221-10.685-31.617-25h83.234c-3.396 14.315-16.278 25-31.617 25zm20.762 10.213c4.667-2.278 8.905-5.299 12.565-8.907 17.388 15.834 37.879 27.847 60.074 35.211-2.196 4.44-3.715 9.269-4.428 14.354-25.417-8.352-48.681-22.213-68.211-40.658zm9.738 135.787h-55v-2.5c0-6.893 5.607-12.5 12.5-12.5h30c6.893 0 12.5 5.607 12.5 12.5zm216-2.5v2.5h-201v-2.5c0-15.164-12.336-27.5-27.5-27.5h-4.797l38.66-64.853c11.905 6.464 24.48 11.7 37.548 15.601 4.316 21.779 23.562 38.252 46.589 38.252h20c23.027 0 42.273-16.473 46.589-38.251 13.068-3.902 25.643-9.137 37.548-15.601l38.66 64.853h-4.797c-15.164-.001-27.5 12.335-27.5 27.499zm70 2.5h-55v-2.5c0-6.893 5.607-12.5 12.5-12.5h30c6.893 0 12.5 5.607 12.5 12.5z"/><path d="m233.5 220.5h15v15h-15z"/><path d="m263.5 220.5h15v15h-15z"/></g></svg>