<svg width="108" height="31" viewBox="0 0 108 31" fill="none" xmlns="http://www.w3.org/2000/svg">
<path d="M42.533 22.947C42.981 22.947 43.3357 23.0497 43.597 23.255C43.863 23.4557 43.996 23.7287 43.996 24.074C43.996 24.3353 43.9167 24.592 43.758 24.844C43.5993 25.0913 43.331 25.3737 42.953 25.691L41.91 26.566H44.122L44.213 27H41.175V26.601L42.659 25.313C42.9297 25.0797 43.1303 24.8767 43.261 24.704C43.3917 24.5267 43.457 24.3353 43.457 24.13C43.457 23.8873 43.3707 23.7053 43.198 23.584C43.03 23.4627 42.806 23.402 42.526 23.402C42.2693 23.402 42.0523 23.444 41.875 23.528C41.6977 23.612 41.5483 23.689 41.427 23.759L41.266 23.311C41.3967 23.2317 41.5647 23.1523 41.77 23.073C41.9753 22.989 42.2297 22.947 42.533 22.947ZM47.5136 22.947C47.8263 22.947 48.0876 23.003 48.2976 23.115C48.5076 23.2223 48.6639 23.3647 48.7666 23.542C48.8739 23.7147 48.9276 23.9013 48.9276 24.102C48.9276 24.3447 48.8529 24.557 48.7036 24.739C48.5543 24.921 48.3816 25.047 48.1856 25.117C48.4143 25.1683 48.6079 25.2967 48.7666 25.502C48.9299 25.7027 49.0116 25.9453 49.0116 26.23C49.0116 26.4773 48.9463 26.699 48.8156 26.895C48.6849 27.091 48.4983 27.245 48.2556 27.357C48.0176 27.4737 47.7353 27.532 47.4086 27.532C47.1473 27.532 46.8953 27.49 46.6526 27.406C46.4099 27.3267 46.2023 27.2403 46.0296 27.147L46.3166 26.762C46.4846 26.8647 46.6503 26.944 46.8136 27C46.9816 27.0513 47.1869 27.077 47.4296 27.077C47.6023 27.077 47.7656 27.0443 47.9196 26.979C48.0783 26.9137 48.2066 26.818 48.3046 26.692C48.4073 26.566 48.4586 26.4167 48.4586 26.244C48.4586 25.9687 48.3559 25.7493 48.1506 25.586C47.9499 25.418 47.6209 25.334 47.1636 25.334H46.9956L46.9116 24.921H47.2056C47.5696 24.921 47.8543 24.8487 48.0596 24.704C48.2696 24.5547 48.3746 24.3563 48.3746 24.109C48.3746 23.9223 48.2953 23.7567 48.1366 23.612C47.9779 23.4673 47.7633 23.395 47.4926 23.395C47.2499 23.395 47.0329 23.4347 46.8416 23.514C46.6549 23.5933 46.5056 23.6703 46.3936 23.745L46.1206 23.381C46.3119 23.2597 46.5219 23.157 46.7506 23.073C46.9793 22.989 47.2336 22.947 47.5136 22.947ZM54.4778 26.055L54.4148 26.51H53.7498V27.483H53.1968V26.51H51.0968L51.0198 26.055L53.3648 23.003H53.7498V26.055H54.4778ZM53.1968 23.969L51.6148 26.055H53.1968V23.969Z" fill="white"/>
<path d="M7.98 15H6.874V10.646H2.408V15H1.302V5.48L2.408 5.41V9.75H6.874V5.48H7.98V15ZM14.6032 15.196C13.7445 15.196 12.9792 14.986 12.3072 14.566C11.6352 14.146 11.1079 13.5673 10.7252 12.83C10.3519 12.0833 10.1652 11.234 10.1652 10.282C10.1652 9.33 10.3565 8.48067 10.7392 7.734C11.1312 6.978 11.6632 6.38067 12.3352 5.942C13.0165 5.50333 13.7912 5.27467 14.6592 5.256C15.5272 5.256 16.2925 5.47067 16.9552 5.9C17.6272 6.32 18.1545 6.89867 18.5372 7.636C18.9292 8.37333 19.1252 9.218 19.1252 10.17C19.1252 11.1313 18.9292 11.99 18.5372 12.746C18.1452 13.4927 17.6085 14.0853 16.9272 14.524C16.2459 14.9533 15.4712 15.1773 14.6032 15.196ZM14.5752 14.23C15.2285 14.23 15.8072 14.0573 16.3112 13.712C16.8152 13.3667 17.2119 12.8907 17.5012 12.284C17.7905 11.668 17.9352 10.968 17.9352 10.184C17.9352 9.41867 17.7952 8.73733 17.5152 8.14C17.2352 7.54267 16.8479 7.076 16.3532 6.74C15.8679 6.39467 15.3125 6.222 14.6872 6.222C14.0339 6.222 13.4505 6.39933 12.9372 6.754C12.4332 7.09933 12.0365 7.57533 11.7472 8.182C11.4672 8.78867 11.3272 9.484 11.3272 10.268C11.3272 11.0333 11.4672 11.7147 11.7472 12.312C12.0272 12.9093 12.4099 13.3807 12.8952 13.726C13.3899 14.062 13.9499 14.23 14.5752 14.23ZM27.6037 5.48L27.7297 6.348H24.4397V15H23.3197V6.348H20.1277V5.48H27.6037ZM35.1984 15H29.4584V5.48H34.6524L34.7784 6.306H30.5644V9.722H33.8544L33.9804 10.548H30.5644V14.118H35.0584L35.1984 15ZM42.5965 14.118L42.7085 15H37.0665V5.48H38.1725V14.118H42.5965ZM57.4373 5.48H58.5013L62.1553 14.916L61.0633 15.084L59.9993 12.298H55.9813L54.9873 15H53.9093L57.4373 5.48ZM59.6773 11.402L57.9553 6.936L56.2893 11.402H59.6773ZM69.4125 14.118L69.5245 15H63.8825V5.48H64.9885V14.118H69.4125ZM75.5426 11.794L75.1646 11.864L72.3506 7.804V15H71.2446V5.48H71.9026L75.3186 10.338L78.6226 5.48H79.3226V15H78.2026V7.832L75.5426 11.794ZM84.5683 5.48H85.6323L89.2863 14.916L88.1943 15.084L87.1303 12.298H83.1123L82.1183 15H81.0403L84.5683 5.48ZM86.8083 11.402L85.0863 6.936L83.4203 11.402H86.8083ZM94.2616 15H91.0136V5.48H94.3456C95.3256 5.48 96.1189 5.69 96.7256 6.11C97.3416 6.53 97.7942 7.09467 98.0836 7.804C98.3729 8.51333 98.5176 9.30667 98.5176 10.184C98.5176 11.0893 98.3542 11.906 98.0276 12.634C97.7009 13.362 97.2202 13.9407 96.5856 14.37C95.9602 14.79 95.1856 15 94.2616 15ZM94.4016 6.418H92.1196V14.076H94.2756C94.9009 14.076 95.4469 13.922 95.9136 13.614C96.3896 13.306 96.7582 12.8627 97.0196 12.284C97.2809 11.7053 97.4116 11.01 97.4116 10.198C97.4116 9.47 97.3042 8.82133 97.0896 8.252C96.8749 7.68267 96.5436 7.23467 96.0956 6.908C95.6476 6.58133 95.0829 6.418 94.4016 6.418ZM103.052 5.48H104.116L107.77 14.916L106.678 15.084L105.614 12.298H101.596L100.602 15H99.5241L103.052 5.48ZM105.292 11.402L103.57 6.936L101.904 11.402H105.292Z" fill="white"/>
<line x1="48.2" y1="5" x2="48.2" y2="19" stroke="white" stroke-width="0.4"/>
</svg>
