<svg width="588" height="581" viewBox="0 0 588 581" fill="none" xmlns="http://www.w3.org/2000/svg">
<path d="M329.981 118.853L336.861 121.026C338.554 121.561 340.005 122.291 341.213 123.216C342.452 124.125 343.305 125.235 343.77 126.546C344.243 127.833 344.212 129.324 343.677 131.017C343.156 132.586 342.34 133.777 341.229 134.59C340.126 135.38 338.882 135.84 337.495 135.971L340.185 148.461L336.516 147.303L334.217 135.906C334.022 135.87 333.673 135.786 333.172 135.654C332.694 135.529 332.291 135.414 331.961 135.31L328.821 134.318L325.79 143.915L322.403 142.845L329.981 118.853ZM335.923 123.873L332.465 122.781L329.69 131.566L332.972 132.603C334.03 132.937 335.027 133.097 335.963 133.082C336.923 133.074 337.761 132.835 338.479 132.363C339.221 131.899 339.763 131.126 340.104 130.044C340.639 128.35 340.486 127.034 339.644 126.096C338.833 125.142 337.593 124.401 335.923 123.873Z" fill="#7B7C7C"/>
<path d="M363.317 159.494L349.028 152.331L360.303 129.839L372.972 136.189L372.175 138.853L362.252 133.878L358.554 141.254L366.195 145.085L365.398 147.748L357.327 143.702L353.447 151.442L364.131 156.798L363.317 159.494Z" fill="#7B7C7C"/>
<path d="M371.703 162.99L373.99 161.162C374.355 161.842 374.904 162.668 375.638 163.639C376.386 164.59 377.224 165.392 378.151 166.046C379.622 167.085 380.932 167.602 382.082 167.598C383.232 167.595 384.12 167.15 384.746 166.263C385.457 165.255 385.57 164.112 385.084 162.833C384.612 161.534 383.803 159.921 382.656 157.995C381.857 156.646 381.247 155.415 380.825 154.302C380.423 153.203 380.269 152.159 380.364 151.169C380.493 150.173 380.92 149.161 381.646 148.134C382.357 147.126 383.262 146.421 384.361 146.019C385.474 145.597 386.698 145.51 388.033 145.758C389.382 145.985 390.752 146.59 392.142 147.571C393.17 148.297 394.058 149.135 394.806 150.085C395.574 151.05 396.18 151.946 396.623 152.772L394.034 154.387C393.695 153.755 393.261 153.086 392.733 152.381C392.238 151.67 391.507 150.973 390.54 150.29C389.391 149.479 388.268 149.018 387.169 148.907C386.09 148.81 385.231 149.214 384.591 150.121C384.107 150.807 383.879 151.536 383.906 152.31C383.968 153.078 384.235 153.961 384.708 154.96C385.215 155.952 385.862 157.132 386.646 158.501C387.793 160.428 388.516 162.161 388.818 163.702C389.139 165.258 388.773 166.781 387.721 168.272C386.583 169.884 384.999 170.759 382.97 170.897C380.975 171.028 378.788 170.255 376.41 168.577C375.987 168.278 375.519 167.872 375.005 167.359C374.498 166.88 374.002 166.364 373.517 165.81C373.052 165.271 372.652 164.747 372.317 164.238C371.981 163.73 371.777 163.314 371.703 162.99Z" fill="#7B7C7C"/>
<path d="M403.724 191.237L392.189 180.173L409.605 162.015L419.832 171.825L418.284 174.134L410.273 166.45L404.562 172.405L410.73 178.321L409.182 180.63L402.667 174.381L396.673 180.629L405.298 188.902L403.724 191.237Z" fill="#7B7C7C"/>
<path d="M430.606 183.8L434.958 189.555C436.029 190.972 436.789 192.407 437.239 193.86C437.723 195.319 437.776 196.717 437.396 198.056C437.037 199.379 436.148 200.577 434.732 201.648C433.399 202.625 432.044 203.124 430.668 203.144C429.311 203.149 428.029 202.804 426.823 202.108L421.786 213.85L419.465 210.781L424.188 200.158C424.05 200.015 423.814 199.745 423.482 199.347C423.165 198.968 422.902 198.641 422.694 198.366L420.707 195.739L412.68 201.809L410.538 198.976L430.606 183.8ZM432.545 191.333L430.358 188.441L423.009 193.998L425.085 196.743C425.754 197.628 426.475 198.336 427.247 198.865C428.033 199.415 428.856 199.705 429.714 199.736C430.588 199.787 431.477 199.47 432.382 198.786C433.799 197.715 434.435 196.553 434.292 195.3C434.184 194.053 433.601 192.73 432.545 191.333Z" fill="#7B7C7C"/>
<path d="M449.662 210.845L434.936 227.352L456.505 224.635L458.111 227.72L431.42 230.934L429.934 228.079L447.579 207.966L449.662 210.845Z" fill="#7B7C7C"/>
<path d="M444.365 263.732L439.364 248.551L463.261 240.68L467.694 254.139L465.244 255.453L461.772 244.91L453.935 247.491L456.609 255.609L454.159 256.923L451.334 248.348L443.111 251.056L446.85 262.407L444.365 263.732Z" fill="#7B7C7C"/>
<path d="M461.136 293.597L458.377 294.235L457.347 284.856L460.105 284.218L461.136 293.597Z" fill="#7B7C7C"/>
<path d="M462.74 317.417L460.75 324.353C460.26 326.06 459.569 327.529 458.676 328.762C457.801 330.025 456.714 330.906 455.416 331.406C454.141 331.913 452.65 331.921 450.943 331.431C449.361 330.952 448.149 330.168 447.307 329.079C446.488 327.998 445.995 326.765 445.827 325.383L433.413 328.403L434.474 324.704L445.805 322.105C445.836 321.908 445.911 321.558 446.03 321.053C446.142 320.572 446.246 320.165 446.341 319.833L447.25 316.668L437.576 313.893L438.556 310.478L462.74 317.417ZM457.879 323.49L458.879 320.005L450.024 317.464L449.075 320.772C448.769 321.839 448.635 322.84 448.675 323.775C448.708 324.734 448.969 325.566 449.46 326.271C449.944 327 450.731 327.521 451.821 327.834C453.529 328.324 454.84 328.136 455.756 327.269C456.689 326.434 457.396 325.174 457.879 323.49Z" fill="#7B7C7C"/>
<path d="M422.997 351.819L429.779 337.345L452.562 348.021L446.549 360.853L443.865 360.127L448.575 350.075L441.104 346.574L437.477 354.314L434.794 353.588L438.624 345.413L430.784 341.739L425.714 352.561L422.997 351.819Z" fill="#7B7C7C"/>
<path d="M419.724 360.295L421.612 362.532C420.941 362.915 420.131 363.486 419.18 364.246C418.249 365.019 417.469 365.877 416.84 366.821C415.841 368.319 415.358 369.643 415.392 370.792C415.426 371.942 415.895 372.817 416.798 373.42C417.824 374.104 418.97 374.186 420.235 373.666C421.522 373.16 423.112 372.309 425.008 371.112C426.335 370.277 427.549 369.634 428.651 369.183C429.739 368.752 430.779 368.571 431.77 368.639C432.769 368.742 433.792 369.142 434.839 369.84C435.865 370.525 436.593 371.411 437.024 372.499C437.476 373.6 437.595 374.821 437.383 376.162C437.191 377.517 436.623 378.902 435.679 380.318C434.981 381.365 434.167 382.274 433.236 383.047C432.292 383.841 431.413 384.47 430.599 384.935L428.916 382.39C429.539 382.034 430.195 381.583 430.886 381.036C431.584 380.523 432.262 379.774 432.919 378.789C433.699 377.619 434.13 376.483 434.212 375.382C434.281 374.301 433.853 373.452 432.93 372.837C432.232 372.371 431.496 372.163 430.723 372.21C429.957 372.292 429.081 372.583 428.096 373.082C427.118 373.616 425.955 374.293 424.607 375.114C422.712 376.311 420.998 377.08 419.465 377.422C417.919 377.784 416.387 377.459 414.868 376.447C413.226 375.352 412.31 373.792 412.118 371.767C411.934 369.776 412.649 367.57 414.264 365.148C414.551 364.717 414.945 364.238 415.444 363.712C415.91 363.192 416.413 362.682 416.953 362.183C417.48 361.704 417.993 361.29 418.492 360.941C418.992 360.592 419.402 360.377 419.724 360.295Z" fill="#7B7C7C"/>
<path d="M392.335 393.053L403.09 381.228L421.703 398.158L412.167 408.641L409.818 407.154L417.287 398.943L411.183 393.391L405.432 399.714L403.083 398.228L409.158 391.549L402.753 385.723L394.711 394.564L392.335 393.053Z" fill="#7B7C7C"/>
<path d="M400.481 419.728L394.844 424.231C393.456 425.339 392.042 426.137 390.601 426.625C389.156 427.148 387.759 427.238 386.411 426.894C385.078 426.569 383.858 425.713 382.749 424.325C381.737 423.019 381.203 421.678 381.146 420.302C381.105 418.946 381.416 417.656 382.079 416.431L370.208 411.707L373.215 409.306L383.96 413.746C384.098 413.603 384.362 413.361 384.752 413.018C385.122 412.691 385.442 412.42 385.712 412.204L388.285 410.149L382.004 402.286L384.779 400.069L400.481 419.728ZM393.002 421.866L395.835 419.603L390.086 412.404L387.397 414.552C386.53 415.245 385.842 415.984 385.332 416.769C384.804 417.57 384.536 418.4 384.527 419.259C384.5 420.133 384.84 421.014 385.548 421.901C386.656 423.288 387.835 423.894 389.083 423.718C390.327 423.576 391.634 422.959 393.002 421.866Z" fill="#7B7C7C"/>
<path d="M373.951 439.493L357.06 425.211L360.347 446.7L357.305 448.387L353.386 421.79L356.201 420.229L376.774 437.336L373.951 439.493Z" fill="#7B7C7C"/>
<path d="M320.942 435.599L335.986 430.198L344.487 453.879L331.15 458.667L329.772 456.252L340.219 452.502L337.431 444.736L329.387 447.624L328.009 445.21L336.506 442.159L333.58 434.01L322.332 438.049L320.942 435.599Z" fill="#7B7C7C"/>
<path d="M291.532 453.156L290.821 450.415L300.169 449.136L300.88 451.877L291.532 453.156Z" fill="#7B7C7C"/>
<path d="M255.864 458.397L249.001 456.169C247.312 455.621 245.867 454.879 244.666 453.945C243.434 453.027 242.591 451.91 242.136 450.595C241.673 449.304 241.716 447.814 242.264 446.124C242.798 444.56 243.623 443.376 244.74 442.571C245.849 441.79 247.098 441.34 248.485 441.22L245.894 428.708L249.554 429.897L251.762 441.311C251.958 441.348 252.305 441.435 252.806 441.572C253.283 441.701 253.685 441.818 254.014 441.925L257.146 442.942L260.253 433.369L263.631 434.466L255.864 458.397ZM249.962 453.33L253.41 454.449L256.255 445.687L252.982 444.624C251.926 444.281 250.93 444.114 249.994 444.121C249.035 444.121 248.194 444.354 247.472 444.82C246.727 445.278 246.179 446.047 245.829 447.126C245.281 448.815 245.424 450.132 246.258 451.078C247.061 452.038 248.296 452.789 249.962 453.33Z" fill="#7B7C7C"/>
<path d="M222.851 417.492L237.083 424.769L225.629 447.171L213.012 440.72L213.83 438.063L223.713 443.116L227.469 435.769L219.859 431.878L220.677 429.222L228.715 433.331L232.657 425.623L222.016 420.182L222.851 417.492Z" fill="#7B7C7C"/>
<path d="M214.493 413.93L212.192 415.74C211.832 415.056 211.289 414.226 210.563 413.25C209.823 412.293 208.992 411.484 208.07 410.822C206.607 409.772 205.301 409.245 204.151 409.239C203.001 409.234 202.11 409.672 201.477 410.553C200.758 411.555 200.636 412.698 201.112 413.98C201.573 415.283 202.37 416.902 203.501 418.838C204.289 420.193 204.89 421.429 205.303 422.545C205.696 423.647 205.841 424.693 205.739 425.682C205.601 426.677 205.166 427.685 204.433 428.707C203.713 429.709 202.803 430.406 201.701 430.799C200.584 431.213 199.36 431.29 198.027 431.032C196.68 430.794 195.315 430.178 193.932 429.186C192.91 428.452 192.029 427.607 191.289 426.65C190.528 425.679 189.93 424.779 189.493 423.949L192.094 422.355C192.428 422.99 192.857 423.662 193.38 424.371C193.869 425.087 194.594 425.789 195.556 426.48C196.698 427.3 197.818 427.77 198.916 427.89C199.994 427.995 200.857 427.597 201.504 426.696C201.993 426.014 202.227 425.287 202.206 424.512C202.15 423.744 201.89 422.858 201.425 421.857C200.925 420.86 200.289 419.675 199.515 418.299C198.384 416.364 197.674 414.625 197.385 413.081C197.076 411.524 197.454 410.003 198.518 408.521C199.669 406.917 201.259 406.055 203.29 405.934C205.286 405.818 207.466 406.609 209.831 408.306C210.251 408.608 210.716 409.018 211.226 409.535C211.729 410.018 212.221 410.538 212.702 411.096C213.162 411.639 213.558 412.166 213.889 412.677C214.221 413.188 214.422 413.606 214.493 413.93Z" fill="#7B7C7C"/>
<path d="M182.697 385.429L194.145 396.585L176.584 414.603L166.436 404.713L168.002 402.416L175.952 410.163L181.71 404.254L175.589 398.289L177.156 395.993L183.621 402.294L189.664 396.093L181.105 387.752L182.697 385.429Z" fill="#7B7C7C"/>
<path d="M155.758 392.652L151.452 386.863C150.392 385.438 149.643 383.997 149.205 382.539C148.732 381.077 148.691 379.679 149.081 378.343C149.451 377.022 150.349 375.832 151.774 374.772C153.115 373.806 154.473 373.318 155.85 373.308C157.206 373.314 158.485 373.669 159.686 374.375L164.816 362.673L167.113 365.761L162.305 376.346C162.443 376.49 162.676 376.762 163.005 377.163C163.319 377.544 163.579 377.873 163.785 378.15L165.751 380.792L173.826 374.786L175.946 377.636L155.758 392.652ZM153.879 385.104L156.043 388.013L163.435 382.515L161.381 379.754C160.719 378.863 160.004 378.15 159.236 377.614C158.454 377.058 157.634 376.762 156.776 376.724C155.903 376.666 155.011 376.976 154.101 377.653C152.676 378.713 152.03 379.869 152.163 381.123C152.261 382.372 152.833 383.698 153.879 385.104Z" fill="#7B7C7C"/>
<path d="M136.918 365.457L151.774 349.067L130.184 351.613L128.603 348.515L155.318 345.513L156.782 348.38L138.977 368.352L136.918 365.457Z" fill="#7B7C7C"/>
<path d="M142.635 312.613L147.515 327.834L123.556 335.515L119.229 322.02L121.69 320.727L125.079 331.297L132.936 328.778L130.326 320.639L132.787 319.345L135.543 327.942L143.788 325.299L140.139 313.918L142.635 312.613Z" fill="#7B7C7C"/>
<path d="M126.101 282.616L128.865 282L129.821 291.387L127.057 292.003L126.101 282.616Z" fill="#7B7C7C"/>
<path d="M120.548 255.656L122.903 248.836C123.482 247.158 124.25 245.726 125.207 244.543C126.148 243.329 127.28 242.506 128.603 242.076C129.903 241.637 131.392 241.708 133.071 242.287C134.625 242.85 135.794 243.697 136.577 244.829C137.338 245.952 137.765 247.209 137.859 248.598L150.416 246.241L149.161 249.878L137.707 251.873C137.666 252.068 137.573 252.414 137.427 252.912C137.289 253.386 137.164 253.786 137.051 254.113L135.977 257.225L145.49 260.51L144.33 263.867L120.548 255.656ZM125.724 249.849L124.54 253.277L133.249 256.284L134.372 253.031C134.734 251.982 134.92 250.989 134.93 250.053C134.948 249.094 134.731 248.249 134.279 247.519C133.834 246.765 133.076 246.203 132.003 245.833C130.324 245.253 129.005 245.372 128.044 246.188C127.069 246.974 126.295 248.194 125.724 249.849Z" fill="#7B7C7C"/>
<path d="M162.059 223.409L154.519 237.503L132.334 225.636L139.018 213.14L141.66 214.008L136.424 223.795L143.699 227.687L147.731 220.151L150.372 221.018L146.113 228.979L153.748 233.062L159.385 222.525L162.059 223.409Z" fill="#7B7C7C"/>
<path d="M165.776 215.119L164.009 212.785C164.699 212.438 165.539 211.91 166.529 211.203C167.499 210.48 168.324 209.664 169.002 208.755C170.079 207.312 170.631 206.015 170.658 204.866C170.685 203.716 170.264 202.817 169.394 202.168C168.405 201.43 167.265 201.287 165.974 201.739C164.663 202.176 163.029 202.943 161.073 204.037C159.703 204.8 158.457 205.378 157.333 205.77C156.224 206.143 155.176 206.269 154.189 206.148C153.197 205.992 152.197 205.538 151.188 204.786C150.2 204.048 149.52 203.125 149.147 202.016C148.755 200.892 148.7 199.666 148.983 198.338C149.246 196.996 149.887 195.642 150.905 194.278C151.657 193.27 152.519 192.405 153.489 191.682C154.474 190.94 155.385 190.358 156.223 189.937L157.768 192.568C157.127 192.89 156.448 193.306 155.729 193.816C155.004 194.291 154.288 195.003 153.58 195.952C152.739 197.079 152.248 198.19 152.108 199.285C151.982 200.361 152.364 201.231 153.254 201.895C153.926 202.397 154.649 202.644 155.424 202.637C156.193 202.596 157.083 202.352 158.093 201.906C159.099 201.425 160.296 200.81 161.685 200.062C163.641 198.967 165.394 198.29 166.942 198.03C168.505 197.75 170.018 198.156 171.481 199.247C173.063 200.428 173.895 202.034 173.979 204.066C174.058 206.064 173.226 208.229 171.486 210.562C171.176 210.977 170.757 211.434 170.231 211.934C169.739 212.428 169.209 212.911 168.643 213.381C168.092 213.831 167.557 214.217 167.04 214.539C166.523 214.861 166.101 215.054 165.776 215.119Z" fill="#7B7C7C"/>
<path d="M194.863 183.859L183.496 195.096L165.807 177.205L175.884 167.241L178.151 168.85L170.258 176.654L176.059 182.522L182.137 176.513L184.404 178.122L177.984 184.469L184.071 190.626L192.57 182.223L194.863 183.859Z" fill="#7B7C7C"/>
<path d="M188.142 156.789L194.01 152.592C195.454 151.558 196.909 150.836 198.374 150.425C199.845 149.98 201.244 149.964 202.572 150.379C203.886 150.774 205.059 151.694 206.092 153.138C207.034 154.497 207.496 155.864 207.48 157.241C207.449 158.597 207.07 159.869 206.343 161.057L217.947 166.404L214.817 168.642L204.323 163.639C204.177 163.774 203.9 164.002 203.493 164.323C203.107 164.63 202.773 164.884 202.492 165.085L199.814 167.001L205.669 175.186L202.78 177.253L188.142 156.789ZM195.724 155.051L192.774 157.16L198.134 164.654L200.933 162.652C201.836 162.006 202.562 161.304 203.112 160.547C203.682 159.775 203.994 158.961 204.048 158.103C204.122 157.231 203.829 156.334 203.169 155.411C202.136 153.967 200.991 153.299 199.735 153.409C198.485 153.485 197.148 154.032 195.724 155.051Z" fill="#7B7C7C"/>
<path d="M215.682 138.458L231.793 153.616L229.649 131.982L232.776 130.459L235.28 157.226L232.386 158.636L212.749 140.463L215.682 138.458Z" fill="#7B7C7C"/>
<path d="M268.411 145.156L253.102 149.752L245.867 125.655L259.44 121.58L260.688 124.064L250.056 127.256L252.429 135.158L260.615 132.701L261.863 135.185L253.216 137.781L255.706 146.073L267.152 142.637L268.411 145.156Z" fill="#7B7C7C"/>
<path d="M298.709 129.183L299.274 131.958L289.871 132.739L289.307 129.964L298.709 129.183Z" fill="#7B7C7C"/>
</svg>
