<svg id="Capa_1" enable-background="new 0 0 512 512" height="512" viewBox="0 0 512 512" width="512" xmlns="http://www.w3.org/2000/svg"><g><g><path d="m498.5 467h-52.772c-4.143 0-7.5 3.357-7.5 7.5s3.357 7.5 7.5 7.5h51.205c-.76 8.398-7.84 15-16.433 15h-449c-8.593 0-15.672-6.602-16.433-15h395.497c4.143 0 7.5-3.357 7.5-7.5s-3.357-7.5-7.5-7.5h-50.051c1.845-3.614 2.911-7.687 2.976-12h5.511c15.163 0 27.5-12.337 27.5-27.5v-256c0-15.163-12.337-27.5-27.5-27.5h-7.552c-4.143 0-7.5 3.357-7.5 7.5s3.357 7.5 7.5 7.5h7.552c6.893 0 12.5 5.607 12.5 12.5v14h-251v-14c0-6.893 5.607-12.5 12.5-12.5h182.867c4.143 0 7.5-3.357 7.5-7.5s-3.357-7.5-7.5-7.5h-3.367v-8.5c0-9.649-7.851-17.5-17.5-17.5h-41.5v-31.125c0-4.143-3.357-7.5-7.5-7.5-4.142 0-7.5 3.357-7.5 7.5v31.125h-41.5c-9.649 0-17.5 7.851-17.5 17.5v8.5h-46.5c-15.164 0-27.5 12.337-27.5 27.5v164.248c0 4.143 3.358 7.5 7.5 7.5s7.5-3.357 7.5-7.5v-11.248h251v79.5h-251v-33.275c0-4.143-3.358-7.5-7.5-7.5s-7.5 3.357-7.5 7.5v56.775c0 15.163 12.336 27.5 27.5 27.5h5.511c.065 4.313 1.131 8.386 2.976 12h-137.987c-7.444 0-13.5 6.056-13.5 13.5 0 17.369 14.131 31.5 31.5 31.5h449c17.369 0 31.5-14.131 31.5-31.5 0-7.444-6.056-13.5-13.5-13.5zm-294-331.5c0-1.379 1.122-2.5 2.5-2.5h98c1.379 0 2.5 1.121 2.5 2.5v8.5h-103zm-11 330.87v-11.387c9.414-.088 18.676-1.735 27.541-4.927 7.477-2.691 15.298-4.057 23.245-4.057h23.43c7.947 0 15.768 1.365 23.245 4.057 8.864 3.191 18.126 4.839 27.54 4.927v11.387c0 .212.023.419.032.63h-125.065c.009-.21.032-.417.032-.63zm142.58.63h-1.95c-.348 0-.63-.282-.63-.63v-11.37h14.979c-.224 6.653-5.692 12-12.399 12zm-205.58-266.5h103v109h-103zm118 109v-109h15v109zm30 0v-109h103v109zm-148 118v-8.5h251v8.5c0 6.893-5.607 12.5-12.5 12.5h-49.715c-7.947 0-15.768-1.365-23.245-4.057-9.11-3.28-18.641-4.943-28.325-4.943h-23.43c-9.684 0-19.214 1.663-28.326 4.943-7.477 2.691-15.298 4.057-23.245 4.057h-49.714c-6.893 0-12.5-5.607-12.5-12.5zm33.021 27.5h14.979v11.37c0 .348-.283.63-.63.63h-1.95c-6.706 0-12.175-5.347-12.399-12z"/><path d="m209.557 386.5c9.706 0 17.603-7.896 17.603-17.603 0-16.21-13.188-29.397-29.397-29.397h-26c-9.706 0-17.603 7.896-17.603 17.603v11.795c0 9.706 7.896 17.603 17.603 17.603h37.794zm-40.397-17.603v-11.795c0-1.435 1.167-2.603 2.603-2.603h26c7.939 0 14.397 6.459 14.397 14.397 0 1.435-1.167 2.603-2.603 2.603h-37.795c-1.435.001-2.602-1.167-2.602-2.602z"/><path d="m340.237 386.5c9.706 0 17.603-7.896 17.603-17.603v-11.795c0-9.706-7.896-17.603-17.603-17.603h-26c-16.21 0-29.397 13.188-29.397 29.397 0 9.706 7.896 17.603 17.603 17.603h37.794zm-40.397-17.603c0-7.938 6.459-14.397 14.397-14.397h26c1.435 0 2.603 1.168 2.603 2.603v11.795c0 1.435-1.168 2.603-2.603 2.603h-37.795c-1.434-.001-2.602-1.169-2.602-2.604z"/><path d="m256.035 53.44c-11.435 0-22.29 3.662-31.394 10.592-3.296 2.509-3.934 7.214-1.425 10.511 1.476 1.938 3.711 2.957 5.973 2.957 1.583 0 3.18-.499 4.537-1.532 6.47-4.925 14.184-7.527 22.309-7.527 8.102 0 15.795 2.587 22.249 7.482 3.301 2.504 8.004 1.856 10.508-1.443 2.503-3.3 1.857-8.005-1.443-10.508-9.083-6.89-19.911-10.532-31.314-10.532z"/><path d="m301.379 51.595c2.504-3.3 1.858-8.004-1.441-10.508-12.743-9.669-27.925-14.78-43.902-14.78-16.019 0-31.228 5.132-43.982 14.841-3.296 2.509-3.934 7.215-1.425 10.511 1.476 1.938 3.711 2.957 5.973 2.957 1.583 0 3.18-.499 4.538-1.532 10.121-7.704 22.188-11.776 34.896-11.776 12.676 0 24.723 4.056 34.836 11.729 3.297 2.501 8.004 1.858 10.507-1.442z"/><path d="m204.505 32.386c1.583 0 3.18-.499 4.537-1.532 13.626-10.372 29.875-15.854 46.993-15.854 17.084 0 33.312 5.466 46.93 15.806 3.298 2.507 8.004 1.861 10.508-1.438 2.506-3.299 1.861-8.003-1.438-10.508-16.248-12.339-35.613-18.86-56-18.86-20.426 0-39.82 6.543-56.078 18.918-3.296 2.509-3.934 7.215-1.425 10.511 1.476 1.938 3.712 2.957 5.973 2.957z"/></g></g></svg>