<svg width="16" height="15" viewBox="0 0 16 15" fill="none" xmlns="http://www.w3.org/2000/svg">
<path d="M4.03679 14.6645L4.03679 5.06301L0.775888 5.06301L0.775888 14.6645H4.03679ZM2.40676 3.7513C3.54389 3.7513 4.2517 3.01402 4.2517 2.09267C4.23052 1.15053 3.54393 0.433716 2.42834 0.433716C1.31291 0.433716 0.583496 1.15055 0.583496 2.09267C0.583496 3.01407 1.29113 3.7513 2.38547 3.7513H2.40666H2.40676ZM5.84168 14.6645L9.10258 14.6645V9.30255C9.10258 9.01559 9.12377 8.72892 9.20988 8.52379C9.44562 7.95044 9.98216 7.35662 10.883 7.35662C12.0629 7.35662 12.535 8.23711 12.535 9.52784V14.6644H15.7957V9.15902C15.7957 6.20982 14.1869 4.83759 12.0415 4.83759C10.2823 4.83759 9.50998 5.79991 9.08089 6.45533H9.10265L9.10265 5.06281L5.84176 5.06281C5.88455 5.96376 5.84176 14.6643 5.84176 14.6643L5.84168 14.6645Z" fill="white"/>
</svg>
